<svg xmlns="http://www.w3.org/2000/svg" viewBox="0 0 240 240" role="img" aria-label="Счастливый кот">
  <rect width="240" height="240" rx="36" fill="#9bd18f"/>
  <path d="M56 112 74 54l38 38h16l38-38 18 58c13 13 20 30 20 49 0 40-36 63-84 63s-84-23-84-63c0-19 7-36 20-49Z" fill="#fff7df" stroke="#23312a" stroke-width="7" stroke-linejoin="round"/>
  <path d="M82 141c8 11 19 11 27 0" fill="none" stroke="#23312a" stroke-width="7" stroke-linecap="round"/>
  <path d="M131 141c8 11 19 11 27 0" fill="none" stroke="#23312a" stroke-width="7" stroke-linecap="round"/>
  <path d="M113 165h14l-7 8Z" fill="#e56b6f"/>
  <path d="M92 180c15 22 41 22 56 0" fill="none" stroke="#23312a" stroke-width="7" stroke-linecap="round"/>
</svg>
